# xmcd
#
# Track frame offsets:
#	150
#	17757
#	33842
#	48457
#	60956
#	73032
#	86915
#	100748
#	117919
#	130662
#	146004
#	155916
#	169365
#	183633
#	201272
#	213845
#	226230
#	239666
#	252728
#	271543
#	283584
#	301879
#	317204
#	335338
#	347097
#
# Disc length: 4785 seconds
#
# Revision: 1
# Processed by: cddbd v1.4PL0 Copyright (c) Steve Scherf et al.
# Submitted via: audiograbber 1.81.00
#
DISCID=7612af19
DTITLE=Various Artist - Gulse's Country Sampler
DYEAR=2001
DGENRE=Country
TTITLE0=Phil Vassar - Just another day in paradise
TTITLE1=Daryle Singletary - I knew i loved you
TTITLE2=Mark Chesnutt - Fallin' never felt so good
TTITLE3=Daryle Singletary - Too much fun
TTITLE4=Clay Walker - you're beginning to get to me
TTITLE5=Diamond Rio - Stuff
TTITLE6=Clay Walker - Then what
TTITLE7=Alan Jackson - She's right on the money
TTITLE8=Clay Walker - Live until i die
TTITLE9=Billy Ray Cyrus - Achy Breaky Heart
TTITLE10=Clay Walker - If i could make a living
TTITLE11=Daryle Singletary - I let her lie
TTITLE12=Trisha Yearwood - Where are you now
TTITLE13=Faith Hill - Take another piece of my heart
TTITLE14=Trisha Yearwood - xxx's and ooo's
TTITLE15=Faith Hill - Wild one
TTITLE16=Anita Cochran - Good times
TTITLE17=Alecia Elliott - You wanna what
TTITLE18=Faith Hill - Breathe
TTITLE19=Buffalo Springfield - For what it's worth
TTITLE20=Ricky Van Shelton - Wild Man (ext. Club Mix)
TTITLE21=Billy Ray Cyrus - Ain't no good goodbye
TTITLE22=Billy Ray Cyrus - I'm so miserable
TTITLE23=Theme - Ein Colt für alle Fälle
TTITLE24=Johnny Cash - Ring of fire
EXTD=
EXTT0=
EXTT1=
EXTT2=
EXTT3=
EXTT4=
EXTT5=
EXTT6=
EXTT7=
EXTT8=
EXTT9=
EXTT10=
EXTT11=
EXTT12=
EXTT13=
EXTT14=
EXTT15=
EXTT16=
EXTT17=
EXTT18=
EXTT19=
EXTT20=
EXTT21=
EXTT22=
EXTT23=
EXTT24=
PLAYORDER=
